<svg xmlns="http://www.w3.org/2000/svg" viewBox="0 0 128 128" role="img" aria-label="像素企鹅">
  <defs>
    <linearGradient id="bg" x1="0" y1="0" x2="1" y2="1">
      <stop offset="0" stop-color="#f8fffb"/>
      <stop offset="0.56" stop-color="#e7fff5"/>
      <stop offset="1" stop-color="#fff4df"/>
    </linearGradient>
    <linearGradient id="beak" x1="0" y1="0" x2="1" y2="1">
      <stop offset="0" stop-color="#ffd45a"/>
      <stop offset="1" stop-color="#ff8a00"/>
    </linearGradient>
    <linearGradient id="ice" x1="0" y1="0" x2="1" y2="1">
      <stop offset="0" stop-color="#00a884"/>
      <stop offset="1" stop-color="#4f46e5"/>
    </linearGradient>
  </defs>
  <rect width="128" height="128" rx="28" fill="url(#bg)"/>
  <rect x="12" y="16" width="104" height="96" rx="24" fill="url(#ice)" opacity="0.16"/>
  <g shape-rendering="crispEdges">
    <rect x="34" y="18" width="60" height="10" fill="#111827"/>
    <rect x="24" y="28" width="80" height="10" fill="#111827"/>
    <rect x="20" y="38" width="88" height="20" fill="#151922"/>
    <rect x="20" y="58" width="18" height="36" fill="#151922"/>
    <rect x="90" y="58" width="18" height="36" fill="#151922"/>
    <rect x="30" y="52" width="68" height="50" fill="#f9fafb"/>
    <rect x="38" y="42" width="18" height="24" fill="#f9fafb"/>
    <rect x="72" y="42" width="18" height="24" fill="#f9fafb"/>
    <rect x="44" y="49" width="10" height="16" fill="#0f2c6d"/>
    <rect x="76" y="49" width="10" height="16" fill="#0f2c6d"/>
    <rect x="51" y="50" width="4" height="5" fill="#fff"/>
    <rect x="83" y="50" width="4" height="5" fill="#fff"/>
    <rect x="58" y="58" width="28" height="12" fill="url(#beak)"/>
    <rect x="62" y="70" width="20" height="8" fill="#f59e0b"/>
    <rect x="42" y="98" width="18" height="10" fill="#f59e0b"/>
    <rect x="68" y="98" width="18" height="10" fill="#f59e0b"/>
    <rect x="30" y="66" width="10" height="24" fill="#0f131c" opacity="0.72"/>
    <rect x="88" y="66" width="10" height="24" fill="#0f131c" opacity="0.72"/>
    <rect x="50" y="82" width="28" height="10" fill="#ffffff" opacity="0.68"/>
  </g>
</svg>